HIERARCHY
ROOT Hips
{
     OFFSET 18.20700 97.20700 -45.17130
     CHANNELS 6 Xposition Yposition Zposition Zrotation Xrotation Yrotation
     JOINT Spine
     {
          OFFSET 0.00000 11.89050 0.00000
          CHANNELS 3 Zrotation Xrotation Yrotation
          JOINT Spine1
          {
               OFFSET 0.00000 25.65740 0.12766
               CHANNELS 3 Zrotation Xrotation Yrotation
               JOINT HEad
               {
                    OFFSET 0.00000 8.73416 0.01134
                    CHANNELS 3 Zrotation Xrotation Yrotation
                    End Site
                    {
                         OFFSET -0.29000 12.77420 2.51395
                    }
               }
               JOINT LeftShoulder1
               {
                    OFFSET 8.99000 -0.36225 -0.22000
                    CHANNELS 3 Zrotation Xrotation Yrotation
                    JOINT LeftArm
                    {
                         OFFSET 10.28270 -0.00338 0.32212
                         CHANNELS 3 Zrotation Xrotation Yrotation
                         JOINT LeftForeArm
                         {
                              OFFSET 32.76690 0.09914 -1.42434
                              CHANNELS 3 Zrotation Xrotation Yrotation
                              JOINT LeftHand
                              {
                                   OFFSET 27.56430 0.08536 1.02216
                                   CHANNELS 3 Zrotation Xrotation Yrotation
                                   End Site
                                   {
                                        OFFSET 16.74430 -0.60000 1.50291
                                   }
                              }
                         }
                    }
               }
               JOINT RightShoulder
               {
                    OFFSET -8.99000 -0.36225 -0.22000
                    CHANNELS 3 Zrotation Xrotation Yrotation
                    JOINT RightArm
                    {
                         OFFSET -10.28270 -0.00338 0.32212
                         CHANNELS 3 Zrotation Xrotation Yrotation
                         JOINT RightForeArm
                         {
                              OFFSET -32.89710 0.09914 -1.42434
                              CHANNELS 3 Zrotation Xrotation Yrotation
                              JOINT RightHand
                              {
                                   OFFSET -27.49210 0.08536 1.02216
                                   CHANNELS 3 Zrotation Xrotation Yrotation
                                   End Site
                                   {
                                        OFFSET -16.63120 -0.60000 1.50291
                                   }
                              }
                         }
                    }
               }
          }
     }
     JOINT LeftUpLeg
     {
          OFFSET 8.94580 -8.66707 0.10165
          CHANNELS 3 Zrotation Xrotation Yrotation
          JOINT LeftLeg
          {
               OFFSET 0.00000 -44.42270 1.37270
               CHANNELS 3 Zrotation Xrotation Yrotation
               JOINT LeftFoot
               {
                    OFFSET -0.25355 -42.09240 -1.46059
                    CHANNELS 3 Zrotation Xrotation Yrotation
                    JOINT LeftToes
                    {
                         OFFSET -0.04000 -4.41509 8.49910
                         CHANNELS 3 Zrotation Xrotation Yrotation
                         End Site
                         {
                              OFFSET 0.08000 -0.04745 9.77979
                         }
                    }
               }
          }
     }
     JOINT RightUpLeg
     {
          OFFSET -8.94580 -8.66707 0.10165
          CHANNELS 3 Zrotation Xrotation Yrotation
          JOINT RightLeg
          {
               OFFSET 0.00000 -44.42270 1.37270
               CHANNELS 3 Zrotation Xrotation Yrotation
               JOINT RightFoot
               {
                    OFFSET 0.25355 -42.09240 -1.46059
                    CHANNELS 3 Zrotation Xrotation Yrotation
                    JOINT RightToes
                    {
                         OFFSET 0.04000 -4.41509 8.49910
                         CHANNELS 3 Zrotation Xrotation Yrotation
                         End Site
                         {
                              OFFSET -0.08000 -0.13745 9.77979
                         }
                    }
               }
          }
     }
}
MOTION
Frames: 8
Frame Time: 0.01667
25.55250 97.12810 -7.64270 -7.40263 4.35787 -42.91580 0.13259 5.68950 1.10031 2.83615 11.25640 1.75945 -11.25070 -8.51873 23.94570 0.00000 0.00000 0.00000 -93.55220 -56.62960 -78.08110 -14.76320 45.82770 -93.03040 43.02630 8.00972 -0.62138 9.23558 1.05574 5.54528 92.40150 -20.72020 95.26000 -15.28400 31.51580 109.32400 -7.99328 9.39664 3.71651 37.28720 -22.64120 13.47720 -25.04100 25.08430 51.68610 6.05272 1.15268 -0.48872 -10.18560 -11.00220 -6.58309 -12.36280 3.94995 -1.80299 0.92538 12.46260 1.22315 28.58710 -17.77340 2.39380 11.56640 31.14530 -25.10800 
25.01450 96.39930 -6.48963 -8.01659 4.61844 -41.57800 0.71077 5.24659 1.42660 2.69745 10.46440 2.46453 -10.07590 -8.05656 22.86000 0.00000 0.00000 0.00000 -84.20090 -55.68080 -67.52680 -12.39340 43.48600 -91.79610 41.87960 8.14251 -0.41521 8.84963 1.04766 5.68520 95.32580 -19.54760 97.80600 -16.70120 31.43810 109.88900 -7.46899 9.50330 2.51304 39.00850 -21.79950 14.27970 -25.43960 20.66890 57.23600 7.84847 0.57698 -0.58471 -3.65636 -3.23620 -4.68691 -11.65630 5.68810 -2.35297 1.03933 12.14280 -0.04632 27.63860 -19.51930 2.73905 11.34340 30.84050 -24.77390 
24.51340 95.52970 -5.15570 -8.82194 4.69017 -40.04320 1.34345 4.83352 1.82060 2.61206 9.76568 3.30528 -8.88873 -7.62391 21.30970 0.00000 0.00000 0.00000 -73.09140 -51.69590 -54.82940 -9.16824 39.38330 -90.31730 40.15210 8.44788 0.21927 8.22764 1.01956 5.79804 98.86360 -17.80740 100.73900 -18.39070 31.32400 110.76900 -6.94442 9.61560 0.99834 40.34100 -21.07000 15.49130 -26.14520 17.30210 63.36510 9.48882 -1.07132 -0.55725 3.82288 5.98571 -2.56287 -10.99870 7.70847 -2.83248 1.19005 11.99090 -1.51783 26.93740 -21.20820 3.07368 10.99690 30.34360 -24.28440 
24.09240 94.60330 -3.64150 -9.67035 4.48620 -38.12200 1.74463 4.48853 2.24652 2.57535 9.16225 4.25300 -7.67476 -7.24431 19.19860 0.00000 0.00000 0.00000 -64.48300 -44.55560 -43.62220 -5.51428 34.49470 -87.85130 37.99740 8.90854 1.34413 7.35856 0.96865 5.86693 102.84200 -15.52030 103.86200 -20.14520 31.23470 111.88900 -6.56995 9.71785 -0.69061 40.92360 -20.95260 17.19970 -26.88290 15.86470 68.63660 10.77610 -3.32482 -0.40611 8.90501 12.35500 -0.57602 -10.55930 10.07280 -3.17258 1.39054 11.84830 -3.14036 26.57520 -22.34890 3.30407 10.21600 29.03050 -23.55340 
23.79060 93.66390 -1.93413 -10.37270 3.95408 -35.70410 1.74504 4.22133 2.69705 2.54151 8.61883 5.30271 -6.37459 -6.90320 16.41520 0.00000 0.00000 0.00000 -60.30280 -35.74580 -35.29110 -1.76671 30.31810 -83.80450 35.83000 9.47315 2.95548 6.33418 0.90101 5.88379 106.93100 -12.79580 106.91100 -21.78490 31.20770 113.15100 -6.52709 9.80117 -2.33252 40.61250 -21.90780 19.33970 -27.41160 17.13970 71.92190 11.85100 -5.29419 -0.23050 9.55194 13.04320 1.04828 -10.50310 12.56190 -3.30089 1.62836 12.03590 -4.82004 26.52980 -22.70870 3.38523 8.89816 26.54060 -22.73900 
23.65160 92.76630 0.03139 -10.84070 3.11122 -32.83130 1.55079 3.97526 3.19594 2.46368 8.07286 6.50520 -4.93620 -6.58919 12.90900 0.00000 0.00000 0.00000 -59.55990 -25.95080 -29.04050 1.74847 26.76270 -77.60130 33.94670 10.09360 4.98429 5.30434 0.82805 5.84791 110.70700 -9.81255 109.60800 -23.22350 31.20940 114.45400 -6.97129 9.86632 -3.68705 39.47760 -23.81740 21.42070 -27.56490 20.93340 73.09490 12.95090 -6.35042 -0.12664 6.24535 8.37132 1.70317 -10.86520 15.01960 -3.13848 1.84357 12.74720 -6.50450 26.72370 -22.09300 3.26216 7.33450 23.24720 -22.38070 
23.69300 91.93170 2.28475 -11.05460 1.97076 -29.70050 1.41165 3.68826 3.81809 2.30203 7.49357 7.93575 -3.34564 -6.36658 8.75545 0.00000 0.00000 0.00000 -61.13560 -15.64330 -24.06460 4.11189 23.25740 -68.42740 32.36330 10.60090 6.83980 4.37052 0.75994 5.78361 113.76400 -6.81946 111.71600 -24.50180 31.11490 115.72300 -8.00749 9.91756 -4.59549 37.62730 -26.08660 22.61660 -27.39270 26.13110 72.98580 13.99370 -6.45884 -0.12474 0.27889 0.11028 0.81758 -11.64020 17.10290 -2.57708 1.95672 14.54620 -8.10239 27.06690 -20.52750 2.92252 6.10562 20.32740 -23.40740 
23.90990 91.26610 4.74340 -10.99360 0.54203 -26.45700 1.32241 3.38694 4.57245 2.04010 6.93490 9.60014 -1.66239 -6.42251 4.14242 0.00000 0.00000 0.00000 -64.20470 -5.53274 -19.62440 4.23966 18.73870 -55.83620 30.92650 10.68890 7.29808 3.49646 0.69986 5.75890 115.86800 -4.11342 113.08000 -25.79420 30.76520 116.94900 -9.65242 9.95604 -5.04562 34.97770 -27.94840 22.20920 -27.09960 31.03030 72.48120 14.86690 -5.88203 -0.21335 -6.98579 -9.27889 -1.57892 -12.71720 18.51940 -1.57116 1.88637 17.70540 -9.48773 27.35730 -17.78040 2.27794 6.05163 19.55980 -27.23500 
